<mxfile host="app.diagrams.net" modified="2023-03-14T20:22:29.303Z" agent="5.0 (Windows NT 10.0; Win64; x64) AppleWebKit/537.36 (KHTML, like Gecko) Chrome/111.0.0.0 Safari/537.36" etag="0uT5ANhOgU2ZOBRbw14q" version="21.0.6" type="github">
  <diagram id="C5RBs43oDa-KdzZeNtuy" name="Page-1">
    <mxGraphModel dx="1927" dy="565" grid="1" gridSize="10" guides="1" tooltips="1" connect="1" arrows="1" fold="1" page="1" pageScale="1" pageWidth="827" pageHeight="1169" math="0" shadow="0">
      <root>
        <mxCell id="WIyWlLk6GJQsqaUBKTNV-0" />
        <mxCell id="WIyWlLk6GJQsqaUBKTNV-1" parent="WIyWlLk6GJQsqaUBKTNV-0" />
        <mxCell id="B8NWNGm2eGzO9SJ4kYKH-9" style="edgeStyle=orthogonalEdgeStyle;rounded=0;orthogonalLoop=1;jettySize=auto;html=1;exitX=0.5;exitY=0.5;exitDx=0;exitDy=0;exitPerimeter=0;" parent="WIyWlLk6GJQsqaUBKTNV-1" source="B8NWNGm2eGzO9SJ4kYKH-10" target="B8NWNGm2eGzO9SJ4kYKH-12" edge="1">
          <mxGeometry relative="1" as="geometry">
            <mxPoint x="80" y="80" as="targetPoint" />
          </mxGeometry>
        </mxCell>
        <mxCell id="B8NWNGm2eGzO9SJ4kYKH-10" value="Actor" style="shape=umlActor;verticalLabelPosition=bottom;verticalAlign=top;html=1;outlineConnect=0;" parent="WIyWlLk6GJQsqaUBKTNV-1" vertex="1">
          <mxGeometry y="47.5" width="30" height="60" as="geometry" />
        </mxCell>
        <mxCell id="B8NWNGm2eGzO9SJ4kYKH-11" value="&lt;font style=&quot;font-size: 16px;&quot;&gt;User&lt;/font&gt;" style="text;html=1;align=center;verticalAlign=middle;whiteSpace=wrap;rounded=0;fillColor=#FFFFFF;" parent="WIyWlLk6GJQsqaUBKTNV-1" vertex="1">
          <mxGeometry y="115" width="30" height="20" as="geometry" />
        </mxCell>
        <mxCell id="B8NWNGm2eGzO9SJ4kYKH-12" value="&lt;span id=&quot;docs-internal-guid-8fb7d328-7fff-267a-5b9d-7c477c72c8ca&quot; style=&quot;font-size: 12pt; font-family: Arial; color: rgb(36, 41, 46); background-color: transparent; font-weight: 400; font-style: normal; font-variant: normal; text-decoration: none; vertical-align: baseline;&quot;&gt;Input list is displayed as a drop down&lt;/span&gt;" style="rounded=1;whiteSpace=wrap;html=1;fontSize=12;glass=0;strokeWidth=1;shadow=0;" parent="WIyWlLk6GJQsqaUBKTNV-1" vertex="1">
          <mxGeometry x="70" y="37.5" width="140" height="80" as="geometry" />
        </mxCell>
        <mxCell id="B8NWNGm2eGzO9SJ4kYKH-13" value="&lt;span id=&quot;docs-internal-guid-7a7c4d7f-7fff-2a0e-fbe8-c2413da9a382&quot; style=&quot;font-size: 12pt; font-family: Arial; color: rgb(36, 41, 46); background-color: transparent; font-weight: 400; font-style: normal; font-variant: normal; text-decoration: none; vertical-align: baseline;&quot;&gt;User can pick from input list&lt;/span&gt;" style="rounded=1;whiteSpace=wrap;html=1;fontSize=12;glass=0;strokeWidth=1;shadow=0;" parent="WIyWlLk6GJQsqaUBKTNV-1" vertex="1">
          <mxGeometry x="250" y="37.5" width="140" height="80" as="geometry" />
        </mxCell>
        <mxCell id="B8NWNGm2eGzO9SJ4kYKH-14" value="&lt;span id=&quot;docs-internal-guid-cdc51dc1-7fff-b4c0-9bbd-abc4d29ce75b&quot; style=&quot;font-size: 12pt; font-family: Arial; color: rgb(36, 41, 46); background-color: transparent; font-weight: 400; font-style: normal; font-variant: normal; text-decoration: none; vertical-align: baseline;&quot;&gt;Input choice is picked up by Unity&lt;/span&gt;" style="rounded=1;whiteSpace=wrap;html=1;fontSize=12;glass=0;strokeWidth=1;shadow=0;" parent="WIyWlLk6GJQsqaUBKTNV-1" vertex="1">
          <mxGeometry x="430" y="37.5" width="140" height="80" as="geometry" />
        </mxCell>
        <mxCell id="aazktw8n7rB7rVIEzHhk-0" style="edgeStyle=orthogonalEdgeStyle;rounded=0;orthogonalLoop=1;jettySize=auto;html=1;exitX=1;exitY=0.5;exitDx=0;exitDy=0;entryX=0;entryY=0.5;entryDx=0;entryDy=0;" edge="1" parent="WIyWlLk6GJQsqaUBKTNV-1" source="B8NWNGm2eGzO9SJ4kYKH-15" target="B8NWNGm2eGzO9SJ4kYKH-16">
          <mxGeometry relative="1" as="geometry" />
        </mxCell>
        <mxCell id="B8NWNGm2eGzO9SJ4kYKH-15" value="&lt;span id=&quot;docs-internal-guid-b9ae4071-7fff-de45-961a-15615a77e497&quot; style=&quot;font-size: 12pt; font-family: Arial; color: rgb(36, 41, 46); background-color: transparent; font-weight: 400; font-style: normal; font-variant: normal; text-decoration: none; vertical-align: baseline;&quot;&gt;Input choice is transferred to python code&lt;/span&gt;" style="rounded=1;whiteSpace=wrap;html=1;fontSize=12;glass=0;strokeWidth=1;shadow=0;" parent="WIyWlLk6GJQsqaUBKTNV-1" vertex="1">
          <mxGeometry x="610" y="37.5" width="140" height="80" as="geometry" />
        </mxCell>
        <mxCell id="B8NWNGm2eGzO9SJ4kYKH-16" value="&lt;span id=&quot;docs-internal-guid-aa206cbb-7fff-0fb6-8106-7d482df35403&quot; style=&quot;font-size: 12pt; font-family: Arial; color: rgb(36, 41, 46); background-color: transparent; font-weight: 400; font-style: normal; font-variant: normal; text-decoration: none; vertical-align: baseline;&quot;&gt;AI chooses a pixel/image generating technique that best fits input&lt;/span&gt;" style="rounded=1;whiteSpace=wrap;html=1;fontSize=12;glass=0;strokeWidth=1;shadow=0;" parent="WIyWlLk6GJQsqaUBKTNV-1" vertex="1">
          <mxGeometry x="790" y="37.5" width="180" height="80" as="geometry" />
        </mxCell>
        <mxCell id="B8NWNGm2eGzO9SJ4kYKH-17" value="&lt;span id=&quot;docs-internal-guid-ecd92f4b-7fff-45b0-c233-27889d45701c&quot; style=&quot;font-size: 12pt; font-family: Arial; color: rgb(36, 41, 46); background-color: transparent; font-weight: 400; font-style: normal; font-variant: normal; text-decoration: none; vertical-align: baseline;&quot;&gt;&amp;nbsp;AI creates image &lt;/span&gt;" style="rounded=1;whiteSpace=wrap;html=1;fontSize=12;glass=0;strokeWidth=1;shadow=0;" parent="WIyWlLk6GJQsqaUBKTNV-1" vertex="1">
          <mxGeometry x="250" y="209.87" width="140" height="80" as="geometry" />
        </mxCell>
        <mxCell id="B8NWNGm2eGzO9SJ4kYKH-18" value="&lt;span id=&quot;docs-internal-guid-0eeaf80f-7fff-7066-6dea-746e33f3ada5&quot; style=&quot;font-size: 12pt; font-family: Arial; color: rgb(36, 41, 46); background-color: transparent; font-weight: 400; font-style: normal; font-variant: normal; text-decoration: none; vertical-align: baseline;&quot;&gt;AI art is displayed in Unity&lt;/span&gt;" style="rounded=1;whiteSpace=wrap;html=1;fontSize=12;glass=0;strokeWidth=1;shadow=0;" parent="WIyWlLk6GJQsqaUBKTNV-1" vertex="1">
          <mxGeometry x="430" y="209.87" width="140" height="80" as="geometry" />
        </mxCell>
        <mxCell id="aazktw8n7rB7rVIEzHhk-1" style="edgeStyle=orthogonalEdgeStyle;rounded=0;orthogonalLoop=1;jettySize=auto;html=1;exitX=1;exitY=0.5;exitDx=0;exitDy=0;entryX=0;entryY=0.5;entryDx=0;entryDy=0;" edge="1" parent="WIyWlLk6GJQsqaUBKTNV-1" source="B8NWNGm2eGzO9SJ4kYKH-19" target="B8NWNGm2eGzO9SJ4kYKH-29">
          <mxGeometry relative="1" as="geometry" />
        </mxCell>
        <mxCell id="B8NWNGm2eGzO9SJ4kYKH-19" value="&lt;span id=&quot;docs-internal-guid-32781fac-7fff-9324-e969-902cbd098d36&quot; style=&quot;font-size: 12pt; font-family: Arial; color: rgb(36, 41, 46); background-color: transparent; font-weight: 400; font-style: normal; font-variant: normal; text-decoration: none; vertical-align: baseline;&quot;&gt;User is able to walk around gallery&lt;/span&gt;" style="rounded=1;whiteSpace=wrap;html=1;fontSize=12;glass=0;strokeWidth=1;shadow=0;" parent="WIyWlLk6GJQsqaUBKTNV-1" vertex="1">
          <mxGeometry x="610" y="209.87" width="140" height="80" as="geometry" />
        </mxCell>
        <mxCell id="B8NWNGm2eGzO9SJ4kYKH-20" value="" style="endArrow=classic;html=1;rounded=0;exitX=1;exitY=0.5;exitDx=0;exitDy=0;entryX=0;entryY=0.5;entryDx=0;entryDy=0;" parent="WIyWlLk6GJQsqaUBKTNV-1" source="B8NWNGm2eGzO9SJ4kYKH-12" target="B8NWNGm2eGzO9SJ4kYKH-13" edge="1">
          <mxGeometry width="50" height="50" relative="1" as="geometry">
            <mxPoint x="700" y="330" as="sourcePoint" />
            <mxPoint x="750" y="280" as="targetPoint" />
          </mxGeometry>
        </mxCell>
        <mxCell id="B8NWNGm2eGzO9SJ4kYKH-21" value="" style="endArrow=classic;html=1;rounded=0;exitX=1;exitY=0.5;exitDx=0;exitDy=0;entryX=0;entryY=0.5;entryDx=0;entryDy=0;" parent="WIyWlLk6GJQsqaUBKTNV-1" source="B8NWNGm2eGzO9SJ4kYKH-13" target="B8NWNGm2eGzO9SJ4kYKH-14" edge="1">
          <mxGeometry width="50" height="50" relative="1" as="geometry">
            <mxPoint x="700" y="330" as="sourcePoint" />
            <mxPoint x="750" y="280" as="targetPoint" />
          </mxGeometry>
        </mxCell>
        <mxCell id="B8NWNGm2eGzO9SJ4kYKH-22" value="" style="endArrow=classic;html=1;rounded=0;exitX=1;exitY=0.5;exitDx=0;exitDy=0;entryX=0;entryY=0.5;entryDx=0;entryDy=0;" parent="WIyWlLk6GJQsqaUBKTNV-1" source="B8NWNGm2eGzO9SJ4kYKH-14" target="B8NWNGm2eGzO9SJ4kYKH-15" edge="1">
          <mxGeometry width="50" height="50" relative="1" as="geometry">
            <mxPoint x="700" y="330" as="sourcePoint" />
            <mxPoint x="750" y="280" as="targetPoint" />
          </mxGeometry>
        </mxCell>
        <mxCell id="B8NWNGm2eGzO9SJ4kYKH-23" value="" style="endArrow=classic;html=1;rounded=0;exitX=1;exitY=0.5;exitDx=0;exitDy=0;entryX=0;entryY=0.5;entryDx=0;entryDy=0;" parent="WIyWlLk6GJQsqaUBKTNV-1" source="B8NWNGm2eGzO9SJ4kYKH-16" target="B8NWNGm2eGzO9SJ4kYKH-17" edge="1">
          <mxGeometry width="50" height="50" relative="1" as="geometry">
            <mxPoint x="700" y="330" as="sourcePoint" />
            <mxPoint x="750" y="280" as="targetPoint" />
            <Array as="points">
              <mxPoint x="1010" y="78" />
              <mxPoint x="1010" y="110" />
              <mxPoint x="1010" y="150" />
              <mxPoint x="200" y="180" />
              <mxPoint x="200" y="250" />
            </Array>
          </mxGeometry>
        </mxCell>
        <mxCell id="B8NWNGm2eGzO9SJ4kYKH-26" value="" style="endArrow=classic;html=1;rounded=0;exitX=1;exitY=0.5;exitDx=0;exitDy=0;entryX=0;entryY=0.5;entryDx=0;entryDy=0;" parent="WIyWlLk6GJQsqaUBKTNV-1" source="B8NWNGm2eGzO9SJ4kYKH-17" target="B8NWNGm2eGzO9SJ4kYKH-18" edge="1">
          <mxGeometry width="50" height="50" relative="1" as="geometry">
            <mxPoint x="770" y="326.87" as="sourcePoint" />
            <mxPoint x="820" y="276.87" as="targetPoint" />
          </mxGeometry>
        </mxCell>
        <mxCell id="B8NWNGm2eGzO9SJ4kYKH-27" value="" style="endArrow=classic;html=1;rounded=0;exitX=1;exitY=0.5;exitDx=0;exitDy=0;" parent="WIyWlLk6GJQsqaUBKTNV-1" source="B8NWNGm2eGzO9SJ4kYKH-18" target="B8NWNGm2eGzO9SJ4kYKH-19" edge="1">
          <mxGeometry width="50" height="50" relative="1" as="geometry">
            <mxPoint x="1300" y="326.87" as="sourcePoint" />
            <mxPoint x="1350" y="276.87" as="targetPoint" />
          </mxGeometry>
        </mxCell>
        <mxCell id="B8NWNGm2eGzO9SJ4kYKH-29" value="&lt;span id=&quot;docs-internal-guid-32781fac-7fff-9324-e969-902cbd098d36&quot; style=&quot;font-size: 12pt; font-family: Arial; color: rgb(36, 41, 46); background-color: transparent; font-weight: 400; font-style: normal; font-variant: normal; text-decoration: none; vertical-align: baseline;&quot;&gt;Does user want to &lt;br&gt;create new images?&lt;br&gt;&lt;/span&gt;" style="rhombus;whiteSpace=wrap;html=1;" parent="WIyWlLk6GJQsqaUBKTNV-1" vertex="1">
          <mxGeometry x="790" y="200" width="180" height="99.75" as="geometry" />
        </mxCell>
        <mxCell id="B8NWNGm2eGzO9SJ4kYKH-31" value="" style="endArrow=classic;html=1;rounded=0;exitX=0.5;exitY=1;exitDx=0;exitDy=0;entryX=0.5;entryY=1;entryDx=0;entryDy=0;" parent="WIyWlLk6GJQsqaUBKTNV-1" source="B8NWNGm2eGzO9SJ4kYKH-29" target="B8NWNGm2eGzO9SJ4kYKH-12" edge="1">
          <mxGeometry width="50" height="50" relative="1" as="geometry">
            <mxPoint x="1620" y="330" as="sourcePoint" />
            <mxPoint x="100" y="240" as="targetPoint" />
            <Array as="points">
              <mxPoint x="880" y="330" />
              <mxPoint x="140" y="330" />
            </Array>
          </mxGeometry>
        </mxCell>
        <mxCell id="B8NWNGm2eGzO9SJ4kYKH-32" value="&lt;font style=&quot;font-size: 16px;&quot;&gt;Yes&lt;/font&gt;" style="text;html=1;strokeColor=none;fillColor=none;align=center;verticalAlign=middle;whiteSpace=wrap;rounded=0;" parent="WIyWlLk6GJQsqaUBKTNV-1" vertex="1">
          <mxGeometry x="880" y="289.87" width="60" height="30" as="geometry" />
        </mxCell>
        <mxCell id="B8NWNGm2eGzO9SJ4kYKH-33" value="&lt;font style=&quot;font-size: 16px;&quot;&gt;Exit program&lt;/font&gt;" style="rounded=1;whiteSpace=wrap;html=1;" parent="WIyWlLk6GJQsqaUBKTNV-1" vertex="1">
          <mxGeometry x="1010" y="209.87" width="140" height="80" as="geometry" />
        </mxCell>
        <mxCell id="B8NWNGm2eGzO9SJ4kYKH-34" value="" style="endArrow=classic;html=1;rounded=0;exitX=1;exitY=0.5;exitDx=0;exitDy=0;" parent="WIyWlLk6GJQsqaUBKTNV-1" source="B8NWNGm2eGzO9SJ4kYKH-29" target="B8NWNGm2eGzO9SJ4kYKH-33" edge="1">
          <mxGeometry width="50" height="50" relative="1" as="geometry">
            <mxPoint x="1750" y="326.87" as="sourcePoint" />
            <mxPoint x="1800" y="276.87" as="targetPoint" />
          </mxGeometry>
        </mxCell>
        <mxCell id="B8NWNGm2eGzO9SJ4kYKH-35" value="&lt;font style=&quot;font-size: 16px;&quot;&gt;No&lt;/font&gt;" style="text;html=1;strokeColor=none;fillColor=none;align=center;verticalAlign=middle;whiteSpace=wrap;rounded=0;" parent="WIyWlLk6GJQsqaUBKTNV-1" vertex="1">
          <mxGeometry x="950" y="219.87" width="60" height="30" as="geometry" />
        </mxCell>
      </root>
    </mxGraphModel>
  </diagram>
</mxfile>
